# xmcd
#
# Track frame offsets: 
#        150
#        25149
#        37160
#        63857
#        83444
#        101927
#        122958
#        140246
#        158238
#        174379
#        188726
#        210281
#        230137
#        253323
#        278965
#
# Disc length: 3971 seconds
#
# Revision: 0
# Processed by: cddbd v1.5.2PL0 Copyright (c) Steve Scherf et al.
# Submitted via: ExactAudioCopy v1.0b3
#
DISCID=db0f810f
DTITLE=Various Artist - Blues From the Waterfront
DYEAR=2002
DGENRE=Blues
TTITLE0=Eddy Clearwater - Cool Blues Walk
TTITLE1=Henry Cooper - Sittin' On It
TTITLE2=Popa Chubby - She Said Evil Was Her Name
TTITLE3=Paul DeLay - All Cried Out
TTITLE4=Ellyn White and Reflux Blue - If You Ever See My Baby
TTITLE5=Charlie Musselwhite - Blues Overtook Me
TTITLE6=Robbie Laws - When Lightnin Strikes
TTITLE7=James Cotton - Second Hand Man
TTITLE8=Jimmy Thackery - Empty Arms Motel
TTITLE9=Lloyd Jones - Highway Rider
TTITLE10=R.L. Burnside - Shake Em On Down
TTITLE11=Little Charlie and The Nightcats - Don't Do It
TTITLE12=Too Slim and The Taildraggers - Crowbar Hotel
TTITLE13=Curtis Salgado - Lip Whippin
TTITLE14=Luther Allison - I'm Back
EXTD=
EXTT0=
EXTT1=
EXTT2=
EXTT3=
EXTT4=
EXTT5=
EXTT6=
EXTT7=
EXTT8=
EXTT9=
EXTT10=
EXTT11=
EXTT12=
EXTT13=
EXTT14=
PLAYORDER=
